# xmcd CD database file
#
# Track frame offsets:
#	150
#	14097
#	27845
#	39880
#	52575
#	65762
#	77887
#	89790
#	100267
#	112935
#	123185
#	134287
#	148350
#	156784
#	171545
#	179472
#	200375
#	212030
#
# Disc length: 3020 seconds
#
# Revision: 0
# Processed by: cddbd v1.4PL0 Copyright (c) Steve Scherf et al.
# Submitted via: CDex 1.40Beta8
#
DISCID=020bca12
DTITLE=Various Artist - Scared Songs From Hay Holler
DYEAR=1995
DGENRE=Country
TTITLE0=Bluegrass Band - I'll meet you in church sunday mornig
TTITLE1=Hazel River Band - Donw on the banks of Jordan
TTITLE2=Sand Mountain Boys - You were sent down from heaven
TTITLE3=Kazuhiro Inaba - When the angels carry my home
TTITLE4=Gillis Brothers - Keeper of the door
TTITLE5=Bluegrass Band - He will set your fields on fire
TTITLE6=Gillis Brothers - Life beyond death
TTITLE7=Goins Brothers - Going up on the mountain
TTITLE8=James Price - Amazing grace
TTITLE9=Bluegrass Brothers - Lord lead on me
TTITLE10=Gillis Brothers - Salvation's final plan
TTITLE11=Hazel River Band - I'll find my way (to the glory land)
TTITLE12=Sand Mountain Boys - Somewhere on down life's road
TTITLE13=Gillis Brothers - I stood on a mountain
TTITLE14=Skeeter and the Skidmarks - I know the lord (has laid his hands on me)
TTITLE15=Bluegrass Band - Hide me rock of ages
TTITLE16=Gillis Brothers - Sunshine in the shadows
TTITLE17=Wayne Henderson and Company - Peace in the valley
EXTD=YEAR: 1995 ID3G: 2
EXTT0=
EXTT1=
EXTT2=
EXTT3=
EXTT4=
EXTT5=
EXTT6=
EXTT7=
EXTT8=
EXTT9=
EXTT10=
EXTT11=
EXTT12=
EXTT13=
EXTT14=
EXTT15=
EXTT16=
EXTT17=
PLAYORDER=
